<svg width="17" height="16" viewBox="0 0 17 16" fill="none" xmlns="http://www.w3.org/2000/svg">
<path d="M14.4954 13.9954H2.49964V1.99964H8.4975V1H1.99982C1.86726 1 1.74013 1.05266 1.64639 1.14639C1.55266 1.24013 1.5 1.36726 1.5 1.49982V14.4952C1.5 14.6277 1.55266 14.7549 1.64639 14.8486C1.74013 14.9423 1.86726 14.995 1.99982 14.995H14.9952C15.1277 14.995 15.2549 14.9423 15.3486 14.8486C15.4423 14.7549 15.495 14.6277 15.495 14.4952V7.9975H14.4954V13.9954Z" fill="white"/>
<path d="M11.3356 1.00085V1.83256H14.0736L9.38232 6.52488L9.97013 7.11267L14.6684 2.41435V5.15937H15.5001V1.00085H11.3356Z" fill="white"/>
</svg>
