<svg width="131" height="24" viewBox="0 0 131 24" fill="none" xmlns="http://www.w3.org/2000/svg">
<g clip-path="url(#clip0_5_19)">
<path d="M96.3745 4.33997V3.96213C96.3745 3.96213 96.3745 3.95852 96.3745 3.95612C96.3727 3.79793 96.3078 3.64684 96.1938 3.5356C96.0797 3.42436 95.9256 3.36193 95.7652 3.36194H92.6496C92.4892 3.36193 92.3351 3.42436 92.221 3.5356C92.107 3.64684 92.042 3.79793 92.0403 3.95612C92.0403 3.95612 92.0403 3.96033 92.0403 3.96213V4.33997C92.0403 4.33997 92.0403 4.34418 92.0403 4.34598V22.9504C92.0403 22.9504 92.0403 22.954 92.0403 22.9564V23.3344C92.0403 23.3344 92.0403 23.3378 92.0403 23.3403C92.042 23.4984 92.107 23.6497 92.221 23.7609C92.3351 23.8722 92.4892 23.9344 92.6496 23.9344H95.7652C95.9256 23.9344 96.0797 23.8722 96.1938 23.7609C96.3078 23.6497 96.3727 23.4984 96.3745 23.3403C96.3745 23.3403 96.3745 23.3368 96.3745 23.3344V22.9564C96.3745 22.9564 96.3745 22.9528 96.3745 22.9504V4.34598C96.3745 4.34598 96.3745 4.34417 96.3745 4.33997Z" fill="white"/>
<path d="M81.9828 3.01881C78.476 3.01881 76.2317 4.72502 75.1282 6.70519C74.5743 5.55494 73.6883 4.59162 72.5813 3.93582C71.4743 3.28002 70.1955 2.96095 68.9053 3.01881C67.6878 2.96348 66.4782 3.23853 65.4082 3.81393C64.3382 4.38934 63.4488 5.24314 62.8368 6.28233V4.0071C62.8368 3.84952 62.774 3.69823 62.662 3.58585C62.5499 3.47347 62.3976 3.409 62.2378 3.40632H59.1039C58.944 3.40885 58.7915 3.47331 58.6793 3.58571C58.5671 3.6981 58.5043 3.84942 58.5043 4.0071V23.3355C58.5043 23.4948 58.5684 23.6476 58.6827 23.7603C58.797 23.8729 58.9521 23.9363 59.1137 23.9363H62.2305C62.3922 23.9363 62.5471 23.8729 62.6614 23.7603C62.7757 23.6476 62.8399 23.4948 62.8399 23.3355V12.0282C62.8399 8.76533 64.6521 6.90174 67.4484 6.90174C70.168 6.90174 71.7815 8.76413 71.7815 12.0282V23.3355C71.7815 23.4148 71.7975 23.4932 71.8283 23.5664C71.8592 23.6395 71.9045 23.7059 71.9615 23.7617C72.0185 23.8176 72.0863 23.8618 72.1607 23.8917C72.2351 23.9216 72.3148 23.9368 72.3952 23.9363H75.5394C75.6198 23.9368 75.6996 23.9216 75.774 23.8917C75.8484 23.8618 75.916 23.8176 75.973 23.7617C76.0301 23.7059 76.0754 23.6395 76.1063 23.5664C76.1372 23.4932 76.153 23.4148 76.153 23.3355V12.0282C76.153 8.76533 77.9275 6.90174 80.7232 6.90174C83.4422 6.90174 85.0564 8.76413 85.0564 12.0282V23.3355C85.0564 23.4148 85.0723 23.4933 85.1033 23.5665C85.1342 23.6397 85.1795 23.7062 85.2366 23.762C85.2937 23.8179 85.3614 23.8621 85.4359 23.892C85.5104 23.9219 85.5902 23.9369 85.6707 23.9363H88.8155C88.8959 23.9369 88.9757 23.9219 89.0502 23.892C89.1247 23.8621 89.1925 23.8179 89.2496 23.762C89.3067 23.7062 89.352 23.6397 89.3829 23.5665C89.4138 23.4933 89.4298 23.4148 89.4298 23.3355V11.7945C89.4285 5.6978 86.2764 3.01761 81.9828 3.01881Z" fill="white"/>
<path d="M34.5005 13.505C34.5005 6.70832 39.8945 3.01886 45.2148 3.01886C50.5351 3.01886 55.9286 6.70531 55.9286 13.505C55.9286 20.3046 50.5345 23.9909 45.2148 23.9909C39.8952 23.9909 34.5005 20.301 34.5005 13.505ZM51.596 13.505C51.596 9.34935 48.562 6.94139 45.2148 6.94139C41.8676 6.94139 38.7941 9.34935 38.7941 13.505C38.7941 17.6606 41.8664 20.0685 45.2148 20.0685C48.5632 20.0685 51.596 17.6606 51.596 13.505Z" fill="white"/>
<path d="M20.8199 2.94861H17.7043C17.5426 2.94861 17.3877 3.01195 17.2734 3.12462C17.1591 3.23729 17.0949 3.39005 17.0949 3.54939V4.93121C15.2176 3.65793 12.9918 2.97773 10.7131 2.98102C5.39647 2.98102 -0.000579834 6.66808 -0.000579834 13.4671C-0.000579834 20.2662 5.39342 23.9531 10.7131 23.9531C12.9918 23.9565 15.2176 23.2764 17.0949 22.003V23.3408C17.0949 23.499 17.1582 23.6509 17.271 23.7634C17.3838 23.8759 17.5371 23.9399 17.6976 23.9416H20.8254C20.9858 23.9399 21.1391 23.8759 21.2519 23.7634C21.3648 23.6509 21.428 23.499 21.428 23.3408V3.5488C21.4278 3.38978 21.3637 3.23727 21.2497 3.12477C21.1358 3.01226 20.9812 2.94893 20.8199 2.94861ZM10.7162 20.0252C7.36835 20.0252 4.29597 17.6173 4.29597 13.4617C4.29597 9.30609 7.36835 6.89813 10.7162 6.89813C14.064 6.89813 17.098 9.30609 17.098 13.4617C17.098 17.6173 14.0627 20.0252 10.7162 20.0252Z" fill="white"/>
<path d="M25.0525 0.981764L25.2572 0.924561C25.1868 0.93522 25.1181 0.954519 25.0525 0.981764Z" fill="white"/>
<path d="M24.7509 1.4719V1.36145C24.746 1.39814 24.746 1.43521 24.7509 1.4719Z" fill="white"/>
<path d="M33.2563 4.32018V3.96522C33.2563 3.80589 33.1921 3.65297 33.0778 3.5403C32.9635 3.42764 32.8085 3.36444 32.6469 3.36444H29.1267V0.459689C29.1326 0.3885 29.1206 0.316905 29.0917 0.251411C29.0628 0.185916 29.0178 0.128556 28.9609 0.0843477C28.904 0.0401398 28.8369 0.0104995 28.7656 -0.00189723C28.6942 -0.0142939 28.6208 -0.00915543 28.552 0.0132103L25.2615 0.924649L25.0568 0.981706C24.9685 0.998935 24.8893 1.04662 24.8335 1.11621C24.7777 1.18579 24.7488 1.27278 24.7521 1.36145V18.8736C24.7521 22.4855 26.9592 24.0006 30.0693 24.0006C31.1729 24.0006 32.5123 23.806 33.2569 23.1848V20.5125C33.2641 20.4393 33.2542 20.3654 33.2279 20.2966C33.2016 20.2278 33.1596 20.1659 33.1053 20.1156C33.0509 20.0653 32.9855 20.028 32.9142 20.0065C32.8428 19.985 32.7675 19.9799 32.6938 19.9917C32.6731 19.9917 32.6524 19.9916 32.6329 19.9964C32.5411 20.0073 32.4506 20.0274 32.363 20.0565L32.3264 20.0637C32.0102 20.122 31.6895 20.1532 31.3679 20.1568C29.7531 20.1568 29.1236 19.2629 29.1236 18.0979V6.82011H31.7536H32.6512C32.8128 6.82011 32.9678 6.75676 33.082 6.6441C33.1963 6.53143 33.2606 6.37866 33.2606 6.21932V5.8541V4.319L33.2563 4.32018Z" fill="white"/>
<path d="M114.957 23.9904H114.822C114.867 23.9932 114.912 23.9932 114.957 23.9904Z" fill="white"/>
<path d="M114.193 3.36446H114.335C114.288 3.36126 114.241 3.36126 114.193 3.36446Z" fill="white"/>
<path d="M103.028 23.9904H102.893C102.938 23.9932 102.983 23.9932 103.028 23.9904Z" fill="white"/>
<path d="M103.367 3.36446H103.509C103.462 3.36126 103.414 3.36126 103.367 3.36446Z" fill="white"/>
<path d="M119.126 23.4545L111.454 13.4388L118.466 3.81074C118.466 3.81074 118.722 3.3668 118.129 3.36499H114.193C114.091 3.3647 113.99 3.38588 113.897 3.42733C113.803 3.46878 113.72 3.52949 113.653 3.60525L108.864 10.1976L104.05 3.60525C103.982 3.52949 103.899 3.46878 103.806 3.42733C103.713 3.38588 103.612 3.3647 103.51 3.36499H99.5871C98.993 3.36499 99.2495 3.81074 99.2495 3.81074L106.484 13.3258L106.405 13.4316L106.411 13.4394L98.7224 23.4551C98.7224 23.4551 98.444 23.9045 99.032 23.9916H103.027C103.22 23.9908 103.406 23.9168 103.545 23.7849L108.93 16.5839L114.298 23.7776C114.437 23.914 114.625 23.9907 114.821 23.9909H118.816C119.405 23.9038 119.126 23.4545 119.126 23.4545Z" fill="white"/>
<path d="M130.517 19.5057C130.374 17.8043 129.592 16.0512 127.889 15.4203C127.238 15.1919 126.548 15.0959 125.859 15.1383C125.17 15.1806 124.497 15.3605 123.88 15.6668C123.228 16.0261 122.686 16.5519 122.311 17.1889C121.935 17.826 121.741 18.5509 121.748 19.2876C121.773 20.0576 121.991 20.8095 122.382 21.4763C122.527 21.7243 122.69 21.9616 122.87 22.1863C123.572 22.918 124.482 23.4229 125.481 23.6346C126.48 23.8463 127.52 23.7549 128.465 23.3723C128.786 23.1778 129.08 22.9445 129.342 22.6778C130.127 21.8051 130.546 20.6715 130.517 19.5057Z" fill="#29BBEA"/>
</g>
<defs>
<clipPath id="clip0_5_19">
<rect width="130.667" height="24" fill="white"/>
</clipPath>
</defs>
</svg>
