<?xml version="1.0" encoding="utf-8"?>
<!-- Generator: Adobe Illustrator 26.5.0, SVG Export Plug-In . SVG Version: 6.00 Build 0)  -->
<svg version="1.1" id="_レイヤー_2" xmlns="http://www.w3.org/2000/svg" xmlns:xlink="http://www.w3.org/1999/xlink" x="0px"
	 y="0px" viewBox="0 0 1882.8 444.2" style="enable-background:new 0 0 1882.8 444.2;" xml:space="preserve">
<style type="text/css">
	.st0{display:none;}
	.st1{display:inline;}
	.st2{fill:#0D4CFF;}
	.st3{fill:#0D0D0D;}
</style>
<g id="logo" class="st0">
	<g class="st1">
		<g>
			<polygon class="st2" points="1800,0 1501.9,53.9 1532.4,53.9 1532.4,92.3 1840.1,36.7 1840.1,0 			"/>
			<rect x="1490.2" y="62.3" class="st3" width="33.7" height="31.2"/>
			<path class="st3" d="M167.9,142.5V60.7h34.9v205.2h-34.9v-92.5H74v92.5H39.1V60.7H74v81.8L167.9,142.5L167.9,142.5z"/>
			<path class="st3" d="M356.7,248c-13.8,14.8-31.6,22.2-53.3,22.2s-39.6-7.3-53-21.9c-13.8-14.8-20.8-33.6-20.8-56.5
				s6.9-42.2,20.8-56.8c13.8-14.4,31.7-21.6,53.6-21.6s39.4,7.2,53,21.6c13.6,14.6,20.5,33.3,20.5,56.2S370.6,233.4,356.7,248
				L356.7,248z M303.4,243.1c12.7,0,22.7-4.7,30.1-14.1c7.4-9.4,11.1-22,11.1-37.8s-3.6-28.1-11-37.2c-7.3-9-17.4-13.5-30.3-13.5
				s-22.6,4.6-29.8,13.8c-7.2,9.2-10.8,21.7-10.8,37.5s3.7,28,11,37.3C281,238.4,290.9,243.1,303.4,243.1L303.4,243.1z"/>
			<path class="st3" d="M483.8,113.4c15.6,0,27.7,4.5,36.5,13.6c8.7,9,13.1,21.5,13.1,37.5v101.4h-33.7v-94.2
				c0-18.8-8.5-28.2-25.6-28.2c-10.6,0-19.1,3.6-25.6,10.8c-6.5,7.2-9.8,17.4-9.8,30.7v81h-33.7V117.1h32.3l0.6,20.8
				C448,121.6,463.4,113.4,483.8,113.4L483.8,113.4z"/>
			<path class="st3" d="M668.2,133.6V60.7h33.7v205.2h-29.7l-0.6-21c-10.4,16.7-25.6,25.1-45.5,25.1s-34.8-7.4-46.7-22.2
				c-11.9-14.8-17.9-34-17.9-57.6s5.9-41.6,17.6-55.6c11.9-13.8,26.9-20.8,45-20.8C643.3,113.7,658,120.3,668.2,133.6L668.2,133.6z
				 M631.9,240.5c11.1,0,20.3-4.6,27.4-13.8c7.1-9.2,10.7-21.3,10.7-36.3s-3.5-27.1-10.4-35.7c-7.3-8.4-16.5-12.7-27.7-12.7
				s-20.4,4.2-27.1,12.7c-6.7,8.4-10.1,20.3-10.1,35.4s3.4,27.6,10.1,36.8C611.5,235.9,620.6,240.5,631.9,240.5L631.9,240.5z"/>
			<path class="st3" d="M866,265.8h-34c-1.9-7.9-3.2-13.6-3.8-17.3c-11.3,14.2-27.6,21.3-48.7,21.3c-15.6,0-27.9-4-37-12
				s-13.7-18.8-13.7-32.4c0-25,16-40.2,47.8-45.5l46.4-7.8c0.8-0.2,2.1-0.6,4-1.1v-13c0-13.1-9.8-19.6-29.4-19.6
				c-9.4,0-16.5,1.8-21.3,5.5s-7.7,9.5-8.7,17.6l-31.7-0.3c2.9-31.9,23.7-47.8,62.5-47.8c40.9,0,61.4,17.1,61.4,51.3v66.9
				C860,242.7,862,254.1,866,265.8L866,265.8z M787.9,244.5c11.1,0,20.5-3.3,28-9.8c7.5-6.5,11.2-14.7,11.2-24.5v-15.6l-41.2,7.2
				c-16,2.9-23.9,10.2-23.9,21.9c0,6.5,2.3,11.6,6.9,15.3C773.5,242.7,779.9,244.5,787.9,244.5L787.9,244.5z"/>
			<path class="st3" d="M999.8,271.3c-26.1,0-46.5-6-61.2-18.2c-14.7-12.1-22.7-29.6-24.1-52.4h34c2.1,28.1,19.3,42.1,51.6,42.1
				c14.4,0,25.5-2.7,33.3-8.2c7.8-5.5,11.7-13.2,11.7-23.2c0-8.1-2.9-14.5-8.7-19.3c-5.8-4.8-15.3-8.6-28.5-11.5l-33.4-7.8
				c-35.9-8.3-53.9-26.7-53.9-55.3c0-17.5,6.5-32.2,19.6-44.1c12.9-11.5,31.2-17.3,55-17.3s42.6,5.8,56.8,17.3
				c14.2,11.5,22.1,27.4,23.6,47.6h-33.7c-1.3-11.5-6.1-20.5-14.3-26.8c-8.2-6.3-19.1-9.5-32.7-9.5c-12.5,0-22.3,2.7-29.4,7.9
				c-7.1,5.3-10.7,12.4-10.7,21.5c0,13.6,9.9,22.6,29.7,26.8l38.6,8.9c38.2,8.8,57.4,28.4,57.4,58.8c0,19.2-7.1,34.5-21.2,45.8
				C1045.2,265.7,1025.4,271.3,999.8,271.3L999.8,271.3z"/>
			<path class="st3" d="M1184.6,142.5l-30.6-1.1v82.7c0,5.4,1.1,9.1,3.2,11.2c2.1,2.1,5.8,3.2,10.9,3.2h16.4v27.4h-26.8
				c-13.3,0-22.8-2.9-28.7-8.8c-5.9-5.9-8.8-15.4-8.8-28.7v-86.8l-21.3,0.9v-25.4l21.3,0.9V71.3h33.7V118l30.6-0.9L1184.6,142.5
				L1184.6,142.5z"/>
			<path class="st3" d="M1332.7,248c-13.8,14.8-31.6,22.2-53.3,22.2s-39.6-7.3-53-21.9c-13.8-14.8-20.8-33.6-20.8-56.5
				s6.9-42.2,20.8-56.8c13.8-14.4,31.7-21.6,53.6-21.6s39.4,7.2,53,21.6c13.6,14.6,20.5,33.3,20.5,56.2S1346.5,233.4,1332.7,248
				L1332.7,248z M1279.4,243.1c12.7,0,22.7-4.7,30.1-14.1c7.4-9.4,11.1-22,11.1-37.8s-3.7-28.1-10.9-37.2
				c-7.3-9-17.4-13.5-30.3-13.5s-22.6,4.6-29.8,13.8c-7.2,9.2-10.8,21.7-10.8,37.5s3.7,28,10.9,37.3
				C1257,238.4,1266.9,243.1,1279.4,243.1L1279.4,243.1z"/>
			<path class="st3" d="M1453.9,112.5c3.3,0,6.4,0.3,9.5,0.9v32c-5.8-0.4-8.7-0.6-8.9-0.6c-11.9,0-21.5,3.9-28.7,11.7
				c-7.2,7.8-10.9,18.7-11.1,32.7v76.7H1381V117.1h32.3l-0.6,27.1C1420.5,123.1,1434.3,112.5,1453.9,112.5z"/>
			<path class="st3" d="M1523.9,265.8h-33.7V117.1h33.7V265.8z"/>
			<path class="st3" d="M1695.3,192.4v8.4h-109.8c0.8,13.6,4.7,24.2,11.7,31.6s16.5,11.1,28.4,11.1c17.1,0,28.6-8.1,34.6-24.2
				l32.3,2.9c-4.6,15.6-12.7,27.5-24.3,35.7c-11.6,8.3-25.8,12.4-42.5,12.4c-23.1,0-41.2-7.4-54.5-22.2
				c-13.3-14.6-19.9-33.6-19.9-57.1s6.4-41.3,19.3-55.9c13.1-14.4,30.6-21.6,52.4-21.6s39.2,7,52.4,21
				C1688.7,148.6,1695.3,168,1695.3,192.4L1695.3,192.4z M1649.8,149.1c-6.5-6.5-15.2-9.8-25.9-9.8s-19.7,3.3-26.2,9.8
				c-6.9,6.7-10.9,16.1-11.8,28.2h75.8C1660.1,164.9,1656.1,155.5,1649.8,149.1L1649.8,149.1z"/>
			<path class="st3" d="M1779.8,270.5c-19.6,0-34.9-4.3-45.8-12.8c-10.9-8.6-17.3-21-19-37.3l31.4-0.9c2.3,17.5,13.8,26.2,34.6,26.2
				c9.8,0,17.4-1.7,22.9-5.2c5.5-3.5,8.2-8.4,8.2-14.7c0-9.2-7.1-15.3-21.3-18.1l-29.7-6.1c-28.2-5.9-42.4-20-42.4-42.1
				c0-14,5.2-25.2,15.6-33.6c10.4-8.3,24.5-12.5,42.4-12.5s32.3,4.1,43.2,12.4c10.9,8.3,17.4,19.9,19.3,34.9l-31.4,0.9
				c-2.5-15.6-13.1-23.4-31.7-23.4c-8.3,0-14.7,1.5-19.3,4.6c-4.6,3.1-6.9,7.5-6.9,13.3c0,8.6,6.6,14.4,19.9,17.3l30.6,6.3
				c15,3.3,26,8.4,33,15.3c7,6.9,10.5,15.9,10.5,27.1c0,15.2-5.7,27-17.2,35.6C1815.2,266.1,1799.6,270.4,1779.8,270.5L1779.8,270.5
				z"/>
		</g>
		<g>
			<path class="st3" d="M302.4,421.8v-74H320c9.7,16.9,28.9,49.2,32.5,57.2h0.1c-0.8-8.4-0.8-20.8-0.8-32.9v-24.4h12.7v74h-16.5
				c-8.7-15-29.3-51.3-33.4-59.7h-0.1c0.5,7.2,0.6,21.4,0.6,34.8v24.9H302.4L302.4,421.8z"/>
			<path class="st3" d="M423.1,408.3c0,5.1,0.4,12.1,0.8,13.5h-12.7c-0.4-1.2-0.8-4-0.9-6c-1.9,3.3-5.9,7.3-15.9,7.3
				c-13.2,0-18.7-8.7-18.7-17.1c0-12.4,10-18.2,26.1-18.2h8.4v-3.8c0-4.3-1.4-8.8-9.6-8.8c-7.3,0-8.8,3.3-9.5,7.4h-12.7
				c0.8-9,6.4-17.2,22.8-17.1c14.3,0.1,22.1,5.8,22.1,18.6L423.1,408.3L423.1,408.3z M410.2,396.1H403c-9.7,0-14,2.9-14,9.1
				c0,4.5,3,8.1,8.9,8.1c10.9,0,12.3-7.5,12.3-15.6V396.1L410.2,396.1z"/>
			<path class="st3" d="M444.4,366.8c6,19.9,10.7,36.4,12,43.1h0.1c1.5-8.1,7-24.6,13-43.1h13.3l-19.7,55h-14.1l-18.8-55H444.4
				L444.4,366.8z"/>
			<path class="st3" d="M491,356.5v-13h13.3v13H491z M491,366.8h13.3v55H491V366.8z"/>
			<path class="st3" d="M567.3,415.7c0,17.7-6.8,28.5-26.6,28.5c-19.8,0-23.3-10.6-24-17.2h13.5c1.3,4.5,4.8,7.3,11,7.3
				c10.8,0,13.1-6.6,13.1-18.1v-3.2c-2.9,5.2-7.6,8.4-16,8.4c-14.1,0-22.8-11.6-22.8-26.9c0-17.4,10.4-28.9,24-28.9
				c9.8,0,13.9,4.6,14.9,7.5c0.1-1.8,0.4-5.2,0.5-6.2h12.6c-0.1,4.3-0.1,10.5-0.1,15.8V415.7L567.3,415.7z M541.8,410.5
				c10.1,0,12.8-7,12.8-17.1s-2.1-17-12.5-17c-7.8,0-13.1,6.2-13.1,17.5C529.1,404.1,534.3,410.5,541.8,410.5L541.8,410.5z"/>
			<path class="st3" d="M624.8,408.3c0,5.1,0.4,12.1,0.8,13.5h-12.7c-0.4-1.2-0.8-4-0.9-6c-1.9,3.3-5.9,7.3-15.9,7.3
				c-13.2,0-18.7-8.7-18.7-17.1c0-12.4,10-18.2,26.1-18.2h8.3v-3.8c0-4.3-1.4-8.8-9.6-8.8c-7.3,0-8.8,3.3-9.5,7.4h-12.7
				c0.8-9,6.4-17.2,22.8-17.1c14.3,0.1,22.2,5.8,22.2,18.6L624.8,408.3L624.8,408.3z M611.8,396.1h-7.2c-9.7,0-14,2.9-14,9.1
				c0,4.5,3,8.1,8.9,8.1c10.9,0,12.3-7.5,12.3-15.6V396.1L611.8,396.1z"/>
			<path class="st3" d="M632.6,366.8h8.8v-15.3h13.3v15.3h11.2V377h-11.2v28.9c0,4.6,1.3,6.5,6,6.5c1.1,0,2.7,0,4-0.2v9.3
				c-2.8,1-6.6,1.1-9.6,1.1c-10,0-13.6-5.4-13.6-14.8V377h-8.8V366.8z"/>
			<path class="st3" d="M674.9,356.5v-13h13.3v13H674.9z M674.9,366.8h13.3v55h-13.3V366.8z"/>
			<path class="st3" d="M702.9,380.6c0-4.7,0-9.6-0.1-13.8h12.8c0.3,1.5,0.5,6,0.5,7.7c1.9-3.9,6.4-9,16.4-9
				c10.8,0,18.3,7.1,18.3,21.2v35.1h-13.3v-33.6c0-6.9-2.5-11.8-9.7-11.8c-7.8,0-11.7,5-11.7,15.2v30.2h-13.3V380.6L702.9,380.6z"/>
			<path class="st3" d="M813.7,415.7c0,17.7-6.8,28.5-26.7,28.5s-23.3-10.6-24-17.2h13.5c1.3,4.5,4.8,7.3,11,7.3
				c10.8,0,13.1-6.6,13.1-18.1v-3.2c-2.9,5.2-7.6,8.4-16,8.4c-14.1,0-22.8-11.6-22.8-26.9c0-17.4,10.4-28.9,24-28.9
				c9.8,0,13.9,4.6,14.9,7.5c0.1-1.8,0.4-5.2,0.5-6.2h12.6c-0.1,4.3-0.1,10.5-0.1,15.8V415.7L813.7,415.7z M788.3,410.5
				c10.1,0,12.8-7,12.8-17.1s-2.1-17-12.5-17c-7.8,0-13.1,6.2-13.1,17.5C775.5,404.1,780.8,410.5,788.3,410.5L788.3,410.5z"/>
			<path class="st3" d="M856.2,347.8h13.9v29.6H903v-29.6h13.8v74H903v-33h-32.8v33h-13.9V347.8L856.2,347.8z"/>
			<path class="st3" d="M982.2,394.2c0,16.4-9.6,28.9-26.9,28.9s-26.4-12.2-26.4-28.7s10-28.9,27.1-28.9
				C971.9,365.5,982.2,377,982.2,394.2L982.2,394.2z M942.4,394.3c0,11.1,5,18.2,13.3,18.2s13-7,13-18.1c0-11.9-4.6-18.3-13.2-18.3
				S942.4,382.4,942.4,394.3L942.4,394.3z"/>
			<path class="st3" d="M993.4,380.6c0-4.7,0-9.6-0.1-13.8h12.8c0.3,1.5,0.5,6,0.5,7.7c1.9-3.9,6.4-9,16.4-9
				c10.8,0,18.3,7.1,18.3,21.2v35.1h-13.3v-33.6c0-6.9-2.5-11.8-9.7-11.8c-7.8,0-11.7,5-11.7,15.2v30.2h-13.3V380.6L993.4,380.6z"/>
			<path class="st3" d="M1104.7,343.6v62.9c0,5.1,0,10.2,0.1,15.3H1092c-0.2-1.6-0.5-4.9-0.5-6.4c-2.7,4.8-7.7,7.7-16.3,7.7
				c-13.9,0-22.8-11.2-22.8-28.2s9.4-29.3,24.9-29.3c8.4,0,12.7,3.2,14.1,5.9v-27.8H1104.7L1104.7,343.6z M1078.9,412.3
				c11.2,0,12.9-9,12.9-18.3c0-10.4-1.7-17.7-12.5-17.7c-8.6,0-13.3,6.7-13.3,18.1S1071,412.3,1078.9,412.3L1078.9,412.3z"/>
			<path class="st3" d="M1162.6,408.3c0,5.1,0.4,12.1,0.8,13.5h-12.7c-0.4-1.2-0.8-4-0.9-6c-1.9,3.3-5.9,7.3-15.9,7.3
				c-13.2,0-18.7-8.7-18.7-17.1c0-12.4,9.9-18.2,26.1-18.2h8.3v-3.8c0-4.3-1.4-8.8-9.6-8.8c-7.3,0-8.8,3.3-9.5,7.4h-12.7
				c0.8-9,6.4-17.2,22.8-17.1c14.3,0.1,22.2,5.8,22.2,18.6L1162.6,408.3L1162.6,408.3z M1149.7,396.1h-7.2c-9.7,0-14,2.9-14,9.1
				c0,4.5,3,8.1,8.9,8.1c10.9,0,12.3-7.5,12.3-15.6V396.1L1149.7,396.1z"/>
			<path class="st3" d="M1172.3,374.1c3-10,4.8-22.5,5-30.5h13.9c-0.8,9.7-4.1,22.5-8.1,30.5H1172.3z"/>
			<path class="st3" d="M1207.4,405.6c1.3,4.9,5.1,7.7,11.4,7.7s8.9-2.5,8.9-6.3c0-4.2-2.5-5.9-11.1-8c-17.2-4.2-20.2-9.5-20.2-17.1
				c0-8,5.7-16.3,21.4-16.3s21.6,8.8,22.2,16.4h-12.7c-0.5-2.6-2.3-6.9-9.9-6.9c-6,0-7.8,2.8-7.8,5.7c0,3.1,1.9,4.7,11.2,7
				c17.8,4.1,20.7,10.2,20.7,18.3c0,9.2-7.2,17.1-22.9,17.1s-22.8-7.8-24.1-17.5L1207.4,405.6L1207.4,405.6z"/>
			<path class="st3" d="M1280.1,347.8h50.3v11.6h-36.7v20.1h34.3V391h-34.3v30.8h-13.6L1280.1,347.8L1280.1,347.8z"/>
			<path class="st3" d="M1385.9,405.8c0,5.4,0,11.7,0.1,16H1373c-0.2-1.5-0.3-4.6-0.4-7c-3.1,5.7-8.1,8.2-15.6,8.2
				c-10.6,0-18.3-6.1-18.3-20.3v-36h13.3v33.3c0,6.4,1.9,12,9.4,12c8,0,11.2-4.4,11.2-16.2v-29.1h13.3L1385.9,405.8L1385.9,405.8z"
				/>
			<path class="st3" d="M1395.5,366.8h8.8v-15.3h13.3v15.3h11.2V377h-11.2v28.9c0,4.6,1.3,6.5,6,6.5c1.1,0,2.7,0,4-0.2v9.3
				c-2.8,1-6.6,1.1-9.6,1.1c-9.9,0-13.6-5.4-13.6-14.8V377h-8.8V366.8z"/>
			<path class="st3" d="M1484.3,405.8c0,5.4,0,11.7,0.1,16h-12.9c-0.2-1.5-0.3-4.6-0.4-7c-3.1,5.7-8.1,8.2-15.6,8.2
				c-10.6,0-18.3-6.1-18.3-20.3v-36h13.3v33.3c0,6.4,1.9,12,9.4,12c8,0,11.2-4.4,11.2-16.2v-29.1h13.3L1484.3,405.8L1484.3,405.8z"
				/>
			<path class="st3" d="M1498.9,381.7c0-6.2,0-10.8-0.1-14.9h13.1c0.2,1.3,0.3,6.4,0.3,10.2c2.6-6.6,8.7-11.3,18-11.5v12.8
				c-11.1-0.1-18,3.9-18,18.5v24.9h-13.3V381.7z"/>
			<path class="st3" d="M1548.5,397.1c0,8.2,4.2,15.4,12.4,15.4c7.1,0,9.3-3.2,10.8-6.7h13.4c-2,6.9-8,17.3-24.6,17.3
				c-17.8,0-25.4-13.7-25.4-28c0-17,8.7-29.5,26-29.5c18.5,0,24.7,13.8,24.7,26.9c0,1.8,0,3.1-0.2,4.7L1548.5,397.1L1548.5,397.1z
				 M1572.5,388.6c-0.1-7.4-3.3-13.4-11.4-13.4s-11.4,5.6-12.2,13.4H1572.5L1572.5,388.6z"/>
		</g>
	</g>
</g>
<g id="logo_00000133516850299189478350000015482514833060677029_">
	<g>
		<polygon class="st2" points="1800,0 1501.9,53.9 1532.4,53.9 1532.4,92.3 1840.1,36.7 1840.1,0 		"/>
		<rect x="1490.2" y="62.3" class="st3" width="33.7" height="31.2"/>
		<path class="st3" d="M167.9,142.5V60.7h34.9v205.2h-34.9v-92.5H74v92.5H39.1V60.7H74v81.8L167.9,142.5L167.9,142.5z"/>
		<path class="st3" d="M356.7,248c-13.8,14.8-31.6,22.2-53.3,22.2s-39.6-7.3-53-21.9c-13.8-14.8-20.8-33.6-20.8-56.5
			s6.9-42.2,20.8-56.8c13.8-14.4,31.7-21.6,53.6-21.6s39.4,7.2,53,21.6c13.6,14.6,20.5,33.3,20.5,56.2S370.6,233.4,356.7,248
			L356.7,248z M303.4,243.1c12.7,0,22.7-4.7,30.1-14.1c7.4-9.4,11.1-22,11.1-37.8s-3.6-28.1-11-37.2c-7.3-9-17.4-13.5-30.3-13.5
			s-22.6,4.6-29.8,13.8c-7.2,9.2-10.8,21.7-10.8,37.5s3.7,28,11,37.3C281,238.4,290.9,243.1,303.4,243.1L303.4,243.1z"/>
		<path class="st3" d="M483.8,113.4c15.6,0,27.7,4.5,36.5,13.6c8.7,9,13.1,21.5,13.1,37.5v101.4h-33.7v-94.2
			c0-18.8-8.5-28.2-25.6-28.2c-10.6,0-19.1,3.6-25.6,10.8c-6.5,7.2-9.8,17.4-9.8,30.7v81h-33.7V117.1h32.3l0.6,20.8
			C448,121.6,463.4,113.4,483.8,113.4L483.8,113.4z"/>
		<path class="st3" d="M668.2,133.6V60.7h33.7v205.2h-29.7l-0.6-21c-10.4,16.7-25.6,25.1-45.5,25.1s-34.8-7.4-46.7-22.2
			c-11.9-14.8-17.9-34-17.9-57.6s5.9-41.6,17.6-55.6c11.9-13.8,26.9-20.8,45-20.8C643.3,113.7,658,120.3,668.2,133.6L668.2,133.6z
			 M631.9,240.5c11.1,0,20.3-4.6,27.4-13.8c7.1-9.2,10.7-21.3,10.7-36.3s-3.5-27.1-10.4-35.7c-7.3-8.4-16.5-12.7-27.7-12.7
			s-20.4,4.2-27.1,12.7c-6.7,8.4-10.1,20.3-10.1,35.4s3.4,27.6,10.1,36.8C611.5,235.9,620.6,240.5,631.9,240.5L631.9,240.5z"/>
		<path class="st3" d="M866,265.8h-34c-1.9-7.9-3.2-13.6-3.8-17.3c-11.3,14.2-27.6,21.3-48.7,21.3c-15.6,0-27.9-4-37-12
			s-13.7-18.8-13.7-32.4c0-25,16-40.2,47.8-45.5l46.4-7.8c0.8-0.2,2.1-0.6,4-1.1v-13c0-13.1-9.8-19.6-29.4-19.6
			c-9.4,0-16.5,1.8-21.3,5.5s-7.7,9.5-8.7,17.6l-31.7-0.3c2.9-31.9,23.7-47.8,62.5-47.8c40.9,0,61.4,17.1,61.4,51.3v66.9
			C860,242.7,862,254.1,866,265.8L866,265.8z M787.9,244.5c11.1,0,20.5-3.3,28-9.8c7.5-6.5,11.2-14.7,11.2-24.5v-15.6l-41.2,7.2
			c-16,2.9-23.9,10.2-23.9,21.9c0,6.5,2.3,11.6,6.9,15.3C773.5,242.7,779.9,244.5,787.9,244.5L787.9,244.5z"/>
		<path class="st3" d="M999.8,271.3c-26.1,0-46.5-6-61.2-18.2c-14.7-12.1-22.7-29.6-24.1-52.4h34c2.1,28.1,19.3,42.1,51.6,42.1
			c14.4,0,25.5-2.7,33.3-8.2c7.8-5.5,11.7-13.2,11.7-23.2c0-8.1-2.9-14.5-8.7-19.3c-5.8-4.8-15.3-8.6-28.5-11.5l-33.4-7.8
			c-35.9-8.3-53.9-26.7-53.9-55.3c0-17.5,6.5-32.2,19.6-44.1c12.9-11.5,31.2-17.3,55-17.3s42.6,5.8,56.8,17.3
			c14.2,11.5,22.1,27.4,23.6,47.6h-33.7c-1.3-11.5-6.1-20.5-14.3-26.8c-8.2-6.3-19.1-9.5-32.7-9.5c-12.5,0-22.3,2.7-29.4,7.9
			c-7.1,5.3-10.7,12.4-10.7,21.5c0,13.6,9.9,22.6,29.7,26.8l38.6,8.9c38.2,8.8,57.4,28.4,57.4,58.8c0,19.2-7.1,34.5-21.2,45.8
			C1045.2,265.7,1025.4,271.3,999.8,271.3L999.8,271.3z"/>
		<path class="st3" d="M1184.6,142.5l-30.6-1.1v82.7c0,5.4,1.1,9.1,3.2,11.2c2.1,2.1,5.8,3.2,10.9,3.2h16.4v27.4h-26.8
			c-13.3,0-22.8-2.9-28.7-8.8c-5.9-5.9-8.8-15.4-8.8-28.7v-86.8l-21.3,0.9v-25.4l21.3,0.9V71.3h33.7V118l30.6-0.9L1184.6,142.5
			L1184.6,142.5z"/>
		<path class="st3" d="M1332.7,248c-13.8,14.8-31.6,22.2-53.3,22.2s-39.6-7.3-53-21.9c-13.8-14.8-20.8-33.6-20.8-56.5
			s6.9-42.2,20.8-56.8c13.8-14.4,31.7-21.6,53.6-21.6s39.4,7.2,53,21.6c13.6,14.6,20.5,33.3,20.5,56.2S1346.5,233.4,1332.7,248
			L1332.7,248z M1279.4,243.1c12.7,0,22.7-4.7,30.1-14.1c7.4-9.4,11.1-22,11.1-37.8s-3.7-28.1-10.9-37.2c-7.3-9-17.4-13.5-30.3-13.5
			s-22.6,4.6-29.8,13.8c-7.2,9.2-10.8,21.7-10.8,37.5s3.7,28,10.9,37.3C1257,238.4,1266.9,243.1,1279.4,243.1L1279.4,243.1z"/>
		<path class="st3" d="M1453.9,112.5c3.3,0,6.4,0.3,9.5,0.9v32c-5.8-0.4-8.7-0.6-8.9-0.6c-11.9,0-21.5,3.9-28.7,11.7
			c-7.2,7.8-10.9,18.7-11.1,32.7v76.7H1381V117.1h32.3l-0.6,27.1C1420.5,123.1,1434.3,112.5,1453.9,112.5z"/>
		<path class="st3" d="M1523.9,265.8h-33.7V117.1h33.7V265.8z"/>
		<path class="st3" d="M1695.3,192.4v8.4h-109.8c0.8,13.6,4.7,24.2,11.7,31.6s16.5,11.1,28.4,11.1c17.1,0,28.6-8.1,34.6-24.2
			l32.3,2.9c-4.6,15.6-12.7,27.5-24.3,35.7c-11.6,8.3-25.8,12.4-42.5,12.4c-23.1,0-41.2-7.4-54.5-22.2
			c-13.3-14.6-19.9-33.6-19.9-57.1s6.4-41.3,19.3-55.9c13.1-14.4,30.6-21.6,52.4-21.6s39.2,7,52.4,21
			C1688.7,148.6,1695.3,168,1695.3,192.4L1695.3,192.4z M1649.8,149.1c-6.5-6.5-15.2-9.8-25.9-9.8s-19.7,3.3-26.2,9.8
			c-6.9,6.7-10.9,16.1-11.8,28.2h75.8C1660.1,164.9,1656.1,155.5,1649.8,149.1L1649.8,149.1z"/>
		<path class="st3" d="M1779.8,270.5c-19.6,0-34.9-4.3-45.8-12.8c-10.9-8.6-17.3-21-19-37.3l31.4-0.9c2.3,17.5,13.8,26.2,34.6,26.2
			c9.8,0,17.4-1.7,22.9-5.2c5.5-3.5,8.2-8.4,8.2-14.7c0-9.2-7.1-15.3-21.3-18.1l-29.7-6.1c-28.2-5.9-42.4-20-42.4-42.1
			c0-14,5.2-25.2,15.6-33.6c10.4-8.3,24.5-12.5,42.4-12.5s32.3,4.1,43.2,12.4c10.9,8.3,17.4,19.9,19.3,34.9l-31.4,0.9
			c-2.5-15.6-13.1-23.4-31.7-23.4c-8.3,0-14.7,1.5-19.3,4.6c-4.6,3.1-6.9,7.5-6.9,13.3c0,8.6,6.6,14.4,19.9,17.3l30.6,6.3
			c15,3.3,26,8.4,33,15.3c7,6.9,10.5,15.9,10.5,27.1c0,15.2-5.7,27-17.2,35.6C1815.2,266.1,1799.6,270.4,1779.8,270.5L1779.8,270.5z
			"/>
	</g>
	<g>
		<path class="st3" d="M0,421.8v-77.1h17.5c25.6,49.6,29.4,57.1,30.7,60.7h0.2c-0.8-9.5-0.9-22.1-0.9-34.6v-26.1h12.5v77.1H43.4
			c-27.4-54.3-30-59.9-31.4-63h-0.1c0.6,9.8,0.6,23,0.6,36.8v26.2H0z"/>
		<path class="st3" d="M119.1,407.6c0,3.9,0.3,10.5,0.8,14.2h-11.7c-0.4-1.8-0.8-5.2-0.9-7.6c-2.3,5.1-7.9,8.6-16.6,8.6
			c-14.2,0-19-9.1-19-17.6c0-9.8,6.7-18.7,26.9-18.7c2.4,0,4.8,0,7.5,0v-4.7c0-5-1.5-9.3-9.3-9.3c-7.3,0-9.3,3.6-10,8.5H74
			c0.7-9.3,6.2-18.1,23.1-18.1c13.1,0,22,4.7,22,18.6V407.6z M106.6,395.2c-2.1,0-4.7,0-7.7,0c-11.6,0-13.7,4.7-13.7,9
			c0,4.5,2.7,8.3,9,8.3c9.8,0,12.5-6.6,12.5-16.1V395.2z"/>
		<path class="st3" d="M139.8,364.1c6.3,21.3,10.8,36,12.4,44.9h0.1c1.4-8.1,8-27.7,13-44.9h13l-19.7,57.7h-14l-19-57.7H139.8z"/>
		<path class="st3" d="M186.9,340.2h13.2v13.4h-13.2V340.2z M186.9,364.1h13.2v57.7h-13.2V364.1z"/>
		<path class="st3" d="M263.2,416.6c0,17.8-7.3,28.6-26.4,28.6c-18.1,0-23.4-9.7-24.1-18.2h13.1c1.1,5.2,5.2,7.8,11.8,7.8
			c10.5,0,12.8-6.5,12.8-17.6v-4c-2.9,5.8-8.3,8.2-15.9,8.2c-13.7,0-22.7-11-22.7-28.9c0-18.5,10.8-29.5,23.9-29.5
			c9.1,0,13.1,3.5,14.5,7c0-1.7,0.4-4.7,0.6-5.9h12.8c-0.1,2.8-0.2,9.2-0.2,17.2V416.6z M225.3,392.3c0,11.3,4.7,18.1,12.7,18.1
			c9.4,0,12.7-5.6,12.7-18.3c0-11.9-2.1-18.1-12.3-18.1C230.7,374,225.3,379.9,225.3,392.3z"/>
		<path class="st3" d="M321,407.6c0,3.9,0.3,10.5,0.8,14.2h-11.7c-0.4-1.8-0.8-5.2-0.9-7.6c-2.3,5.1-7.9,8.6-16.6,8.6
			c-14.2,0-19-9.1-19-17.6c0-9.8,6.7-18.7,26.9-18.7c2.4,0,4.8,0,7.5,0v-4.7c0-5-1.5-9.3-9.3-9.3c-7.3,0-9.3,3.6-10,8.5H276
			c0.7-9.3,6.2-18.1,23.1-18.1c13.1,0,22,4.7,22,18.6V407.6z M308.5,395.2c-2.1,0-4.7,0-7.7,0c-11.6,0-13.7,4.7-13.7,9
			c0,4.5,2.7,8.3,9,8.3c9.8,0,12.5-6.6,12.5-16.1V395.2z"/>
		<path class="st3" d="M328.3,364.1h8.5v-16h13.1v16h10.7v10.4h-10.7v31.8c0,4.2,1,6,5.8,6c1.4,0,2.3-0.1,3.8-0.3v9.3
			c-2.7,0.9-6.6,1.1-8.7,1.1c-10.2,0-14.1-4.1-14.1-14.4v-33.5h-8.5V364.1z"/>
		<path class="st3" d="M369.9,340.2h13.2v13.4h-13.2V340.2z M369.9,364.1h13.2v57.7h-13.2V364.1z"/>
		<path class="st3" d="M398.1,382.1c0-11.9-0.1-15.5-0.2-18h12.9c0.2,1,0.5,5.4,0.5,8c2.4-4.7,7.7-9.1,16.4-9.1
			c11.6,0,18.3,7.1,18.3,21.2v37.6h-13.2v-35.2c0-7.1-2-12.5-9.7-12.5c-8,0-11.6,5.2-11.6,16v31.7h-13.2V382.1z"/>
		<path class="st3" d="M509,416.6c0,17.8-7.3,28.6-26.4,28.6c-18.1,0-23.4-9.7-24.1-18.2h13.1c1.1,5.2,5.2,7.8,11.8,7.8
			c10.5,0,12.8-6.5,12.8-17.6v-4c-2.9,5.8-8.3,8.2-15.9,8.2c-13.7,0-22.7-11-22.7-28.9c0-18.5,10.8-29.5,23.9-29.5
			c9.1,0,13.1,3.5,14.5,7c0-1.7,0.4-4.7,0.6-5.9h12.8c-0.1,2.8-0.2,9.2-0.2,17.2V416.6z M471.1,392.3c0,11.3,4.7,18.1,12.7,18.1
			c9.4,0,12.7-5.6,12.7-18.3c0-11.9-2.1-18.1-12.3-18.1C476.5,374,471.1,379.9,471.1,392.3z"/>
		<path class="st3" d="M551.8,344.7h13.6v31.1h30.8v-31.1h13.6v77.1h-13.6v-34.6h-30.8v34.6h-13.6V344.7z"/>
		<path class="st3" d="M675.4,392.1c0,16.8-7.8,30.7-27,30.7c-19.4,0-26.4-14.8-26.4-30.4c0-14.6,8.2-29.4,27.2-29.4
			C666.9,363,675.4,376.2,675.4,392.1z M635.4,392.1c0,12.6,4.6,20.2,13.5,20.2c8.7,0,13-7.5,13-20.1c0-11.8-4.4-18.7-13.4-18.7
			C640,373.5,635.4,380.9,635.4,392.1z"/>
		<path class="st3" d="M686.8,382.1c0-11.9-0.1-15.5-0.2-18h12.9c0.2,1,0.5,5.4,0.5,8c2.4-4.7,7.7-9.1,16.4-9.1
			c11.6,0,18.3,7.1,18.3,21.2v37.6h-13.2v-35.2c0-7.1-2-12.5-9.7-12.5c-8,0-11.6,5.2-11.6,16v31.7h-13.2V382.1z"/>
		<path class="st3" d="M797.7,340.2v65.9c0,6.3,0.1,12.3,0.2,15.7h-12.9c-0.2-1.5-0.5-5-0.5-7.4c-2.8,5.6-7.3,8.5-16.5,8.5
			c-14.8,0-22.3-12.2-22.3-29.8c0-17.1,9.1-30.1,24.6-30.1c8.8,0,12.8,3.2,14.1,5.8v-28.6H797.7z M759.3,392.6
			c0,11.9,4.4,19.4,12.9,19.4c10.7,0,12.9-7.6,12.9-19.6c0-13.6-3.2-18.4-12.3-18.4C764.6,374,759.3,380.3,759.3,392.6z"/>
		<path class="st3" d="M856.5,407.6c0,3.9,0.3,10.5,0.8,14.2h-11.7c-0.4-1.8-0.8-5.2-0.9-7.6c-2.3,5.1-7.9,8.6-16.6,8.6
			c-14.2,0-19-9.1-19-17.6c0-9.8,6.7-18.7,26.9-18.7c2.4,0,4.8,0,7.5,0v-4.7c0-5-1.5-9.3-9.3-9.3c-7.3,0-9.3,3.6-10,8.5h-12.8
			c0.7-9.3,6.2-18.1,23.1-18.1c13.1,0,22,4.7,22,18.6V407.6z M843.9,395.2c-2.1,0-4.7,0-7.7,0c-11.6,0-13.7,4.7-13.7,9
			c0,4.5,2.7,8.3,9,8.3c9.8,0,12.5-6.6,12.5-16.1V395.2z"/>
		<path class="st3" d="M866,369l-1.1-18.6V340H877v10.5l-1.1,18.5H866z"/>
		<path class="st3" d="M895,404.4c0.8,5.5,4.8,8.6,10.9,8.6c6.2,0,9.2-2.8,9.2-6.9c0-4.2-3.4-6.2-12.5-8.7
			c-14.9-4.2-18.5-9.4-18.5-17.5c0-7.4,4.8-17,21.1-17c14.8,0,20.9,7.8,21.6,17.2h-12.9c-0.6-3.6-2.6-7.5-9.4-7.5
			c-4.9,0-7.5,2.2-7.5,6c0,3.5,2.3,5.3,11,7.5c15.4,4,20.1,9.5,20.1,18.7c0,11.5-9.4,17.8-22.6,17.8c-13.4,0-22.3-6.1-23.5-18.4H895
			z"/>
		<path class="st3" d="M967.5,344.7H995c14.4,0,26.4,7.4,26.4,22.5c0,15.7-11.4,23.7-27.7,23.7h-12.6v30.9h-13.6V344.7z M981.1,380
			h11.8c8.9,0,14.7-3.2,14.7-12.6c0-8.3-5.9-11.8-14.3-11.8h-12.2V380z"/>
		<path class="st3" d="M1031.1,383.7c0-9.4,0-16-0.2-19.5h12.9c0.3,2.6,0.3,6.2,0.3,10.6c2.2-5.6,7.7-11.5,17.9-11.6v13.5
			c-12.2,0-17.7,5.3-17.7,18.2v26.9h-13.2V383.7z"/>
		<path class="st3" d="M1080.6,395.8c0,8.6,3.4,16.5,12.5,16.5c7.7,0,10.1-5,11-7.7h13c-2.5,8.8-8.9,18.2-24.4,18.2
			c-18.3,0-25.4-13.1-25.4-29.9c0-14.2,7.1-29.9,26-29.9c18.9,0,24.6,13.9,24.6,28.2c0,0.6-0.1,3.9-0.2,4.6H1080.6z M1104.9,387
			c-0.3-7.6-3.3-13.8-11.9-13.8c-9.6,0-11.9,8.1-12.2,13.8H1104.9z"/>
		<path class="st3" d="M1137.7,404.4c0.8,5.5,4.8,8.6,10.9,8.6c6.2,0,9.2-2.8,9.2-6.9c0-4.2-3.4-6.2-12.5-8.7
			c-14.9-4.2-18.5-9.4-18.5-17.5c0-7.4,4.8-17,21.1-17c14.8,0,20.9,7.8,21.6,17.2h-12.9c-0.6-3.6-2.6-7.5-9.4-7.5
			c-4.9,0-7.5,2.2-7.5,6c0,3.5,2.3,5.3,11,7.5c15.4,4,20.1,9.5,20.1,18.7c0,11.5-9.4,17.8-22.6,17.8c-13.4,0-22.3-6.1-23.5-18.4
			H1137.7z"/>
		<path class="st3" d="M1192.1,395.8c0,8.6,3.4,16.5,12.5,16.5c7.7,0,10.1-5,11-7.7h13c-2.5,8.8-8.9,18.2-24.4,18.2
			c-18.3,0-25.4-13.1-25.4-29.9c0-14.2,7.1-29.9,26-29.9c18.9,0,24.6,13.9,24.6,28.2c0,0.6-0.1,3.9-0.2,4.6H1192.1z M1216.4,387
			c-0.3-7.6-3.3-13.8-11.9-13.8c-9.6,0-11.9,8.1-12.2,13.8H1216.4z"/>
		<path class="st3" d="M1240.7,382.1c0-11.9-0.1-15.5-0.2-18h12.9c0.2,1,0.5,5.4,0.5,8c2.4-4.7,7.7-9.1,16.4-9.1
			c11.6,0,18.3,7.1,18.3,21.2v37.6h-13.2v-35.2c0-7.1-2-12.5-9.7-12.5c-8,0-11.6,5.2-11.6,16v31.7h-13.2V382.1z"/>
		<path class="st3" d="M1296.4,364.1h8.5v-16h13.1v16h10.7v10.4H1318v31.8c0,4.2,1,6,5.8,6c1.4,0,2.3-0.1,3.8-0.3v9.3
			c-2.7,0.9-6.6,1.1-8.7,1.1c-10.2,0-14.1-4.1-14.1-14.4v-33.5h-8.5V364.1z"/>
		<path class="st3" d="M1409.3,407.6c0,3.9,0.3,10.5,0.8,14.2h-11.7c-0.4-1.8-0.8-5.2-0.9-7.6c-2.3,5.1-7.9,8.6-16.6,8.6
			c-14.2,0-19-9.1-19-17.6c0-9.8,6.7-18.7,26.9-18.7c2.4,0,4.8,0,7.5,0v-4.7c0-5-1.5-9.3-9.3-9.3c-7.3,0-9.3,3.6-10,8.5h-12.8
			c0.7-9.3,6.2-18.1,23.1-18.1c13.1,0,22,4.7,22,18.6V407.6z M1396.8,395.2c-2.1,0-4.7,0-7.7,0c-11.6,0-13.7,4.7-13.7,9
			c0,4.5,2.7,8.3,9,8.3c9.8,0,12.5-6.6,12.5-16.1V395.2z"/>
		<path class="st3" d="M1424.4,382.1c0-11.9-0.1-15.5-0.2-18h12.9c0.2,1,0.5,5.4,0.5,8c2.4-4.7,7.7-9.1,16.4-9.1
			c11.6,0,18.3,7.1,18.3,21.2v37.6h-13.2v-35.2c0-7.1-2-12.5-9.7-12.5c-8,0-11.6,5.2-11.6,16v31.7h-13.2V382.1z"/>
		<path class="st3" d="M1535.3,340.2v65.9c0,6.3,0.1,12.3,0.2,15.7h-12.9c-0.2-1.5-0.5-5-0.5-7.4c-2.8,5.6-7.3,8.5-16.5,8.5
			c-14.8,0-22.3-12.2-22.3-29.8c0-17.1,9.1-30.1,24.6-30.1c8.8,0,12.8,3.2,14.1,5.8v-28.6H1535.3z M1496.9,392.6
			c0,11.9,4.4,19.4,12.9,19.4c10.7,0,12.9-7.6,12.9-19.6c0-13.6-3.2-18.4-12.3-18.4C1502.2,374,1496.9,380.3,1496.9,392.6z"/>
		<path class="st3" d="M1580.4,344.7h47.9v11.3h-34.6v21.6h32.5v11.2h-32.5v33h-13.4V344.7z"/>
		<path class="st3" d="M1684.5,405c0,7.9,0.1,13.9,0.2,16.8h-12.8c-0.3-1.7-0.4-4.5-0.5-7.7c-3.2,6.1-8.6,8.7-16.2,8.7
			c-10.7,0-17.8-6.3-17.8-20.1v-38.6h13.1v36.3c0,6.5,2.2,11.4,9.3,11.4c7,0,11.4-4.5,11.4-15.5v-32.2h13.3V405z"/>
		<path class="st3" d="M1693.5,364.1h8.5v-16h13.1v16h10.7v10.4h-10.7v31.8c0,4.2,1,6,5.8,6c1.4,0,2.3-0.1,3.8-0.3v9.3
			c-2.7,0.9-6.6,1.1-8.7,1.1c-10.2,0-14.1-4.1-14.1-14.4v-33.5h-8.5V364.1z"/>
		<path class="st3" d="M1781,405c0,7.9,0.1,13.9,0.2,16.8h-12.8c-0.3-1.7-0.4-4.5-0.5-7.7c-3.2,6.1-8.6,8.7-16.2,8.7
			c-10.7,0-17.8-6.3-17.8-20.1v-38.6h13.1v36.3c0,6.5,2.2,11.4,9.3,11.4c7,0,11.4-4.5,11.4-15.5v-32.2h13.3V405z"/>
		<path class="st3" d="M1796,383.7c0-9.4,0-16-0.2-19.5h12.9c0.3,2.6,0.3,6.2,0.3,10.6c2.2-5.6,7.7-11.5,17.9-11.6v13.5
			c-12.2,0-17.7,5.3-17.7,18.2v26.9H1796V383.7z"/>
		<path class="st3" d="M1845.6,395.8c0,8.6,3.4,16.5,12.5,16.5c7.7,0,10.1-5,11-7.7h13c-2.5,8.8-8.9,18.2-24.4,18.2
			c-18.3,0-25.4-13.1-25.4-29.9c0-14.2,7.1-29.9,26-29.9c18.9,0,24.6,13.9,24.6,28.2c0,0.6-0.1,3.9-0.2,4.6H1845.6z M1869.9,387
			c-0.3-7.6-3.3-13.8-11.9-13.8c-9.6,0-11.9,8.1-12.2,13.8H1869.9z"/>
	</g>
</g>
</svg>
